<svg xmlns="http://www.w3.org/2000/svg" viewBox="0 0 466.1 107.60" width="466.1" height="107.60" role="img" aria-label="tidemarks">
  <title>tidemarks</title>
  <path d="M0 95 V6.25 A6.25 6.25 0 0 1 6.25 0 H459.85 A6.25 6.25 0 0 1 466.10 6.25 V102.7 q-3.950 5.6 -7.900 0 t-7.900 0 t-7.900 0 t-7.900 0 t-7.900 0 t-7.900 0 t-7.900 0 t-7.900 0 t-7.900 0 t-7.900 0 t-7.900 0 t-7.900 0 t-7.900 0 t-7.900 0 t-7.900 0 t-7.900 0 t-7.900 0 t-7.900 0 t-7.900 0 t-7.900 0 t-7.900 0 t-7.900 0 t-7.900 0 t-7.900 0 t-7.900 0 t-7.900 0 t-7.900 0 t-7.900 0 t-7.900 0 t-7.900 0 t-7.900 0 t-7.900 0 t-7.900 0 t-7.900 0 t-7.900 0 t-7.900 0 t-7.900 0 t-7.900 0 t-7.900 0 t-7.900 0 t-7.900 0 t-7.900 0 t-7.900 0 t-7.900 0 t-7.900 0 t-7.900 0 t-7.900 0 t-7.900 0 t-7.900 0 t-7.900 0 t-7.900 0 t-7.900 0 t-7.900 0 t-7.900 0 t-7.900 0 t-7.900 0 t-7.900 0 t-7.900 0 t-7.900 0 Z" fill="#EDE5D6"/>
  <path d="M0 102.7 q3.950 5.6 7.900 0 t7.900 0 t7.900 0 t7.900 0 t7.900 0 t7.900 0 t7.900 0 t7.900 0 t7.900 0 t7.900 0 t7.900 0 t7.900 0 t7.900 0 t7.900 0 t7.900 0 t7.900 0 t7.900 0 t7.900 0 t7.900 0 t7.900 0 t7.900 0 t7.900 0 t7.900 0 t7.900 0 t7.900 0 t7.900 0 t7.900 0 t7.900 0 t7.900 0 t7.900 0 t7.900 0 t7.900 0 t7.900 0 t7.900 0 t7.900 0 t7.900 0 t7.900 0 t7.900 0 t7.900 0 t7.900 0 t7.900 0 t7.900 0 t7.900 0 t7.900 0 t7.900 0 t7.900 0 t7.900 0 t7.900 0 t7.900 0 t7.900 0 t7.900 0 t7.900 0 t7.900 0 t7.900 0 t7.900 0 t7.900 0 t7.900 0 t7.900 0 t7.900 0" fill="none" stroke="#1B2E4D" stroke-width="2.2"/>
  <path d="M39.55 87.8Q35.15 87.8 31.95 85.2Q28.75 82.6 28.75 77.9L28.75 46.5L20.55 46.5L20.55 45.9L29.05 41.8L36.15 30.8L36.75 30.8L36.75 41.8L49.95 41.8L49.95 46.5L36.75 46.5L36.75 76.2Q36.75 78.7 39.05 79.95Q41.35 81.2 44.45 81.2Q46.35 81.2 48 81Q49.65 80.8 50.85 80.5L51.15 80.5L51.15 81.5Q50.15 83.7 47.2 85.75Q44.25 87.8 39.55 87.8Z M68.05 28.7Q65.45 28.7 63.75 26.95Q62.05 25.2 62.05 22.7Q62.05 20.1 63.75 18.4Q65.45 16.7 68.05 16.7Q70.65 16.7 72.35 18.4Q74.05 20.1 74.05 22.7Q74.05 25.2 72.35 26.95Q70.65 28.7 68.05 28.7ZM58.05 86.8L58.05 85.2L64.35 82L64.35 52.2L58.35 47L58.35 46.3L71.75 40.8L72.35 40.8L72.35 82L78.65 85.2L78.65 86.8Z M104.25 87.8Q99.25 87.8 95.3 85.3Q91.35 82.8 89.1 78.25Q86.85 73.7 86.85 67.4Q86.85 58.9 90.15 52.95Q93.45 47 98.95 43.9Q104.45 40.8 110.95 40.8Q113.75 40.8 115.85 41.05Q117.95 41.3 119.65 41.7L119.65 23.2L113.15 18L113.15 17.3L127.05 11.8L127.65 11.8L127.65 82.3L134.75 85.2L134.75 86.8L120.65 86.8L119.85 81.7L119.15 81.7Q115.35 84.9 111.85 86.35Q108.35 87.8 104.25 87.8ZM94.85 65.1Q94.85 73.3 99.25 77.1Q103.65 80.9 109.75 80.9Q112.15 80.9 114.7 80.15Q117.25 79.4 119.65 77.9L119.65 49.9Q117.25 47.8 114.9 46.75Q112.55 45.7 109.65 45.7Q105.65 45.7 102.3 47.65Q98.95 49.6 96.9 53.85Q94.85 58.1 94.85 65.1Z M162.75 87.8Q153.05 87.8 147.45 81.9Q141.85 76 141.85 66.3Q141.85 58.8 144.8 53.05Q147.75 47.3 152.65 44.05Q157.55 40.8 163.15 40.8Q171.05 40.8 175.6 46.3Q180.15 51.8 180.15 62.1L179.65 62.6L149.75 62.6Q149.85 67.2 151.55 71.25Q153.25 75.3 157 77.8Q160.75 80.3 167.05 80.3Q172.55 80.3 179.95 76.3L180.25 76.3L180.25 77.3Q177.95 81.6 173.4 84.7Q168.85 87.8 162.75 87.8ZM161.55 45.2Q156.75 45.2 153.7 48.55Q150.65 51.9 149.95 58L172.55 58Q171.45 51.2 168.7 48.2Q165.95 45.2 161.55 45.2Z M188.55 86.8L188.55 85.2L194.85 82L194.85 52.2L188.85 47L188.85 46.3L201.25 40.8L201.85 40.8L202.75 48.2L203.25 48.2Q207.05 44.4 210.45 42.6Q213.85 40.8 217.95 40.8Q222.75 40.8 226.15 42.95Q229.55 45.1 230.55 49.4L230.85 49.4Q235.05 45 238.7 42.9Q242.35 40.8 246.75 40.8Q252.35 40.8 256 43.75Q259.65 46.7 259.65 52.5L259.65 82L265.95 85.2L265.95 86.8L244.55 86.8L244.55 85.2L251.65 82L251.65 57.2Q251.65 52.8 249 50.5Q246.35 48.2 242.25 48.2Q238.85 48.2 235.85 49.3Q232.85 50.4 230.85 52.6L230.85 82L237.75 85.2L237.75 86.8L216.15 86.8L216.15 85.2L222.85 82L222.85 57.2Q222.85 52.8 220.2 50.5Q217.55 48.2 213.45 48.2Q210.95 48.2 207.85 49.1Q204.75 50 202.85 51.7L202.85 82L209.35 85.2L209.35 86.8Z M283.35 87.8Q278.65 87.8 275.55 85.05Q272.45 82.3 272.45 77.4Q272.45 72.5 276.1 68.9Q279.75 65.3 288.35 63.3L297.85 61.1L297.85 53.8Q297.85 50.3 295.3 47.85Q292.75 45.4 289.25 45.4Q287.85 45.4 286.45 45.7Q285.05 46 282.75 47.1L282.75 56.3L276.35 56.3Q274.75 56.3 274.1 55.55Q273.45 54.8 273.45 52.9Q273.45 50.1 275.85 47.3Q278.25 44.5 282.4 42.65Q286.55 40.8 291.75 40.8Q298.95 40.8 302.4 43.75Q305.85 46.7 305.85 51.7L305.85 80.1Q306.55 80.8 307.9 81.3Q309.25 81.8 311.45 81.8L315.25 81.8L315.55 82L315.55 82.3Q314.35 84.5 312 86.15Q309.65 87.8 306.25 87.8Q303.15 87.8 301.2 86.15Q299.25 84.5 298.45 81.8L297.85 81.8Q295.25 84.3 291.4 86.05Q287.55 87.8 283.35 87.8ZM280.25 75.4Q280.25 81.6 287.75 81.6Q290.15 81.6 292.5 81.1Q294.85 80.6 297.85 79.3L297.85 64.5Q289.85 66 286.15 67.65Q282.45 69.3 281.35 71.2Q280.25 73.1 280.25 75.4Z M320.35 86.8L320.35 85.2L326.65 82L326.65 52.2L320.65 47L320.65 46.3L333.05 40.8L333.65 40.8L334.65 50L334.95 50Q338.55 45.2 341.7 43.15Q344.85 41.1 347.65 41.1Q349.75 41.1 351.15 42.15Q352.55 43.2 352.55 45.3Q352.55 45.9 352.25 47.6L351.65 51.3L340.95 49.3Q337.35 50.8 334.65 54.7L334.65 82L341.75 85.2L341.75 86.8Z M358.15 86.8L358.15 85.2L364.45 82L364.45 23.2L358.45 18L358.45 17.3L371.85 11.8L372.45 11.8L372.45 61.3L388.55 47.6L388.55 47L383.65 43.4L383.65 41.8L402.65 41.8L402.65 43.4L396.25 46.9L379.75 59.6L399.95 81.8L406.35 85.2L406.35 86.8L393.15 86.8L389.35 81.6L372.45 62.8L372.45 82.3L379.55 85.2L379.55 86.8Z M426.95 87.8Q422.25 87.8 418.85 87Q415.45 86.2 411.95 84.4L411.95 73.2L413.35 73.2L416.55 78.7Q419.65 84.2 426.65 84.2Q430.75 84.2 432.95 82.3Q435.15 80.4 435.15 77.1Q435.15 74.3 433.75 72.65Q432.35 71 429.8 69.75Q427.25 68.5 423.75 66.9Q418.65 64.6 415.9 61.85Q413.15 59.1 413.15 54.1Q413.15 50.4 415.25 47.4Q417.35 44.4 420.6 42.6Q423.85 40.8 427.35 40.8Q431.05 40.8 434.2 41.7Q437.35 42.6 440.45 44.2L440.45 55.1L439.05 55.1L435.75 49.8Q432.55 44.7 427.75 44.7Q424.35 44.7 422.3 46.4Q420.25 48.1 420.25 51.1Q420.25 54.5 422.7 56.25Q425.15 58 429.85 60.2Q432.75 61.6 435.55 63Q438.35 64.4 440.2 66.95Q442.05 69.5 442.05 74.2Q442.05 78.6 439.65 81.65Q437.25 84.7 433.75 86.25Q430.25 87.8 426.95 87.8Z" fill="#14171C"/>
</svg>
