<svg xmlns="http://www.w3.org/2000/svg" viewBox="0 0 71.35 107.60" width="71.35" height="107.60" role="img" aria-label="tidemarks">
  <title>tidemarks</title>
  <path d="M0 95 V6.25 A6.25 6.25 0 0 1 6.25 0 H65.10 A6.25 6.25 0 0 1 71.35 6.25 V102.7 q-3.964 5.6 -7.928 0 t-7.928 0 t-7.928 0 t-7.928 0 t-7.928 0 t-7.928 0 t-7.928 0 t-7.928 0 t-7.928 0 Z" fill="#EDE5D6"/>
  <path d="M0 102.7 q3.964 5.6 7.928 0 t7.928 0 t7.928 0 t7.928 0 t7.928 0 t7.928 0 t7.928 0 t7.928 0 t7.928 0" fill="none" stroke="#1B2E4D" stroke-width="2.2"/>
  <path d="M39.55 78.71Q35.15 78.71 31.95 76.11Q28.75 73.51 28.75 68.81L28.75 37.41L20.55 37.41L20.55 36.81L29.05 32.71L36.15 21.71L36.75 21.71L36.75 32.71L49.95 32.71L49.95 37.41L36.75 37.41L36.75 67.11Q36.75 69.61 39.05 70.86Q41.35 72.11 44.45 72.11Q46.35 72.11 48 71.91Q49.65 71.71 50.85 71.41L51.15 71.41L51.15 72.41Q50.15 74.61 47.2 76.66Q44.25 78.71 39.55 78.71Z" fill="#14171C"/>
</svg>
